<mxfile host="Electron" modified="2024-04-17T09:02:17.393Z" agent="Mozilla/5.0 (Windows NT 10.0; Win64; x64) AppleWebKit/537.36 (KHTML, like Gecko) draw.io/22.1.21 Chrome/120.0.6099.109 Electron/28.1.0 Safari/537.36" etag="JBCu3azgC3x1r9u1UAN8" version="22.1.21" type="device">
  <diagram name="Page-1" id="LkV8IYz3qoeHHLN9l4Kp">
    <mxGraphModel dx="627" dy="585" grid="1" gridSize="10" guides="1" tooltips="1" connect="1" arrows="1" fold="1" page="1" pageScale="1" pageWidth="850" pageHeight="1100" math="0" shadow="0">
      <root>
        <mxCell id="0" />
        <mxCell id="1" parent="0" />
        <mxCell id="MNnLZjftGXImcb2qgOQ3-2" value="" style="whiteSpace=wrap;html=1;aspect=fixed;strokeWidth=0;fillColor=none;" vertex="1" parent="1">
          <mxGeometry x="120" y="160" width="200" height="200" as="geometry" />
        </mxCell>
        <mxCell id="MNnLZjftGXImcb2qgOQ3-3" value="" style="whiteSpace=wrap;html=1;aspect=fixed;strokeWidth=0;fillColor=none;" vertex="1" parent="1">
          <mxGeometry x="120" y="400" width="200" height="200" as="geometry" />
        </mxCell>
        <mxCell id="MNnLZjftGXImcb2qgOQ3-5" value="" style="whiteSpace=wrap;html=1;aspect=fixed;strokeWidth=0;fillColor=none;" vertex="1" parent="1">
          <mxGeometry x="120" y="640" width="200" height="200" as="geometry" />
        </mxCell>
        <mxCell id="MNnLZjftGXImcb2qgOQ3-7" value="" style="whiteSpace=wrap;html=1;aspect=fixed;strokeWidth=0;fillColor=none;" vertex="1" parent="1">
          <mxGeometry x="400" y="160" width="200" height="200" as="geometry" />
        </mxCell>
        <mxCell id="MNnLZjftGXImcb2qgOQ3-9" value="" style="whiteSpace=wrap;html=1;aspect=fixed;strokeWidth=0;fillColor=none;" vertex="1" parent="1">
          <mxGeometry x="400" y="400" width="200" height="200" as="geometry" />
        </mxCell>
        <mxCell id="MNnLZjftGXImcb2qgOQ3-11" value="" style="shape=flexArrow;endArrow=classic;html=1;rounded=0;width=22.285714285714285;endSize=22.617142857142856;fillColor=#008a00;strokeColor=#005700;" edge="1" parent="1">
          <mxGeometry width="50" height="50" relative="1" as="geometry">
            <mxPoint x="219.71" y="330" as="sourcePoint" />
            <mxPoint x="219.71" y="190" as="targetPoint" />
          </mxGeometry>
        </mxCell>
        <mxCell id="MNnLZjftGXImcb2qgOQ3-12" value="" style="shape=flexArrow;endArrow=classic;html=1;rounded=0;width=22.285714285714285;endSize=22.617142857142856;fillColor=#ffe6cc;strokeColor=#d79b00;" edge="1" parent="1">
          <mxGeometry width="50" height="50" relative="1" as="geometry">
            <mxPoint x="499.71000000000004" y="190" as="sourcePoint" />
            <mxPoint x="499.71000000000004" y="330" as="targetPoint" />
          </mxGeometry>
        </mxCell>
        <mxCell id="MNnLZjftGXImcb2qgOQ3-13" value="" style="shape=cross;whiteSpace=wrap;html=1;rotation=45;fillColor=#d80073;fontColor=#ffffff;strokeColor=#A50040;" vertex="1" parent="1">
          <mxGeometry x="160" y="437.5" width="120" height="125" as="geometry" />
        </mxCell>
        <mxCell id="MNnLZjftGXImcb2qgOQ3-14" value="" style="shape=corner;whiteSpace=wrap;html=1;rotation=-135;fillColor=#008a00;fontColor=#ffffff;strokeColor=#005700;" vertex="1" parent="1">
          <mxGeometry x="470" y="415" width="80" height="140" as="geometry" />
        </mxCell>
        <mxCell id="MNnLZjftGXImcb2qgOQ3-15" value="" style="ellipse;whiteSpace=wrap;html=1;aspect=fixed;fillColor=#647687;fontColor=#ffffff;strokeColor=#314354;" vertex="1" parent="1">
          <mxGeometry x="160" y="680" width="120" height="120" as="geometry" />
        </mxCell>
      </root>
    </mxGraphModel>
  </diagram>
</mxfile>
